<svg width="640" height="569" viewBox="0 0 640 569" fill="none" xmlns="http://www.w3.org/2000/svg">
<path d="M2.9057 222.658L25.1485 231.409M529.108 35.8777L492.717 4.52362L529.108 35.8777ZM526.584 2L495.241 38.4013L526.584 2ZM18.4079 215.907L9.64628 238.161L18.4079 215.907Z" stroke="#272727" stroke-width="4.265" stroke-miterlimit="10" stroke-linecap="round"/>
<path d="M338.1 27.5461L321.473 76.4672M638.094 361.046L599.366 336.728L638.094 361.046ZM630.884 329.528L606.565 368.257L630.884 329.528ZM102.147 47.1342L36.7845 89.5551L102.147 47.1342ZM48.2555 35.6632L90.6763 101.026L48.2555 35.6632ZM354.258 60.3204L305.326 43.6929L354.258 60.3204Z" stroke="#598070" stroke-width="4.265" stroke-miterlimit="10" stroke-linecap="round"/>
<path d="M514.924 246.665C514.924 251.822 510.74 255.995 505.584 255.995C500.427 255.995 496.243 251.822 496.243 246.665C496.243 241.509 500.427 237.324 505.584 237.324C510.74 237.324 514.924 241.509 514.924 246.665ZM617.038 262.67C617.038 277.932 604.66 290.309 589.398 290.309C574.125 290.309 561.748 277.932 561.748 262.67C561.748 247.397 574.125 235.019 589.398 235.019C604.66 235.019 617.038 247.397 617.038 262.67ZM437.861 79.1229C437.861 88.6711 430.126 96.3949 420.589 96.3949C411.041 96.3949 403.306 88.6711 403.306 79.1229C403.306 69.5856 411.041 61.8508 420.589 61.8508C430.126 61.8508 437.861 69.5856 437.861 79.1229ZM144.903 99.2354C144.903 114.268 132.721 126.46 117.689 126.46C102.656 126.46 90.4644 114.268 90.4644 99.2354C90.4644 84.2029 102.656 72.0218 117.689 72.0218C132.721 72.0218 144.903 84.2029 144.903 99.2354ZM594.609 149.03C594.609 154.11 590.491 158.24 585.4 158.24C580.32 158.24 576.19 154.11 576.19 149.03C576.19 143.939 580.32 139.821 585.4 139.821C590.491 139.821 594.609 143.939 594.609 149.03ZM65.5888 170.028C69.7729 172.442 71.2041 177.795 68.7897 181.98C66.3753 186.164 61.0331 187.595 56.8489 185.18C52.6648 182.766 51.2227 177.413 53.6371 173.229C56.0624 169.056 61.4046 167.613 65.5888 170.028ZM562.381 127.585C562.381 136.696 554.996 144.071 545.896 144.071C536.785 144.071 529.4 136.696 529.4 127.585C529.4 118.474 536.785 111.089 545.896 111.089C554.996 111.089 562.381 118.474 562.381 127.585Z" stroke="#F6F6F6" stroke-width="4.265" stroke-miterlimit="10"/>
<path d="M54.9404 303.279L32.5774 276.481M121.374 132.318L125.383 154.506L121.374 132.318ZM112.284 145.417L134.473 141.407L112.284 145.417ZM620.963 134.066L627.07 112.358L620.963 134.066ZM634.859 126.266L613.163 120.159L634.859 126.266ZM192.931 79.8025L206.248 97.9813L192.931 79.8025ZM190.506 95.556L208.685 82.2278L190.506 95.556ZM30.3597 301.062L57.1581 278.71L30.3597 301.062Z" stroke="#F6F6F6" stroke-width="4.265" stroke-miterlimit="10" stroke-linecap="round"/>
<path d="M183.223 565.261L132.337 564.03C128.812 563.944 126.022 561.019 126.107 557.493L132.935 275.278C133.021 271.751 135.948 268.963 139.474 269.048L190.359 270.28C193.886 270.365 196.675 273.291 196.59 276.818L189.761 559.032C189.676 562.558 186.749 565.346 183.223 565.261Z" fill="#6D9886"/>
<path d="M132.221 304.781L195.876 306.323" stroke="#F6F6F6" stroke-width="5.686" stroke-miterlimit="10"/>
<path d="M131.625 329.442L195.28 330.981" stroke="#F6F6F6" stroke-width="5.686" stroke-miterlimit="10"/>
<path d="M178.663 551.35L137.262 550.348L137.763 529.648L179.164 530.649L178.663 551.35Z" fill="#F6F6F6"/>
<path d="M293.363 565.819L215.557 565.777C211.313 565.775 207.872 562.332 207.874 558.087L208.047 233.355C208.049 229.109 211.493 225.67 215.737 225.672L293.543 225.713C297.789 225.716 301.228 229.159 301.226 233.404L301.054 558.136C301.051 562.381 297.608 565.821 293.363 565.819Z" fill="#C7B59B"/>
<path d="M208.026 271.92L301.205 271.969" stroke="#F6F6F6" stroke-width="5.686" stroke-miterlimit="10"/>
<path d="M208.034 256.39L301.214 256.439" stroke="#F6F6F6" stroke-width="5.686" stroke-miterlimit="10"/>
<path d="M208.014 293.482L301.194 293.531" stroke="#F6F6F6" stroke-width="11.372" stroke-miterlimit="10"/>
<path d="M240.329 225.685L240.298 283.326L254.614 275.122L268.921 283.341L268.952 225.7L240.329 225.685Z" fill="#598070"/>
<path d="M404.163 565.786L310.896 565.8C307.06 565.801 303.951 562.691 303.95 558.857L303.892 189.157C303.891 185.322 307 182.21 310.836 182.209L404.103 182.195C407.938 182.194 411.048 185.305 411.049 189.141L411.107 558.84C411.107 562.674 407.999 565.785 404.163 565.786Z" fill="#598070"/>
<path d="M304.959 389.536L411.081 389.519" stroke="#F6F6F6" stroke-width="11.372" stroke-miterlimit="10"/>
<path d="M304.956 367.794L411.078 367.778" stroke="#F6F6F6" stroke-width="11.372" stroke-miterlimit="10"/>
<path d="M567.929 540.722L489.5 565.014C485.74 566.178 481.747 564.073 480.583 560.314L412.663 341.026C411.499 337.265 413.603 333.272 417.363 332.108L495.793 307.816C499.553 306.651 503.546 308.756 504.71 312.516L572.628 531.804C573.795 535.565 571.69 539.558 567.929 540.722Z" fill="#272727"/>
<path d="M516.61 431.177C520.603 444.071 513.388 457.762 500.495 461.756C487.601 465.749 473.911 458.533 469.917 445.639C465.924 432.747 473.139 419.055 486.033 415.062C498.926 411.068 512.617 418.282 516.61 431.177Z" fill="#EEE6DA"/>
</svg>
