<svg width="108" height="28" viewBox="0 0 108 28" fill="none" xmlns="http://www.w3.org/2000/svg">
<path d="M0 27.6111V26.9889L2.34213 25.6667L12.3634 1.75H15.7422L25.6482 25.5889L28.2591 26.9889V27.6111H16.1261V26.9889L19.4665 25.5889L16.8556 19.1333H7.7559L5.145 25.5889L8.33183 26.9889V27.6111H0ZM8.63899 16.9944H15.9725L12.325 7.93333L8.63899 16.9944Z" fill="#272727"/>
<path d="M34.7345 28C33.4802 28 32.3795 27.8704 31.4324 27.6111C30.5109 27.3778 29.6022 27.0407 28.7064 26.6V22.0889H29.2823L30.6261 24.1111C31.5732 25.563 32.8915 26.2889 34.5809 26.2889C36.5774 26.2889 37.5757 25.55 37.5757 24.0722C37.5757 23.5278 37.4349 23.087 37.1534 22.75C36.8718 22.413 36.4111 22.0889 35.7711 21.7778C35.1568 21.4667 34.2993 21.0778 33.1986 20.6111C31.7652 20.0148 30.7029 19.3148 30.0118 18.5111C29.3207 17.7074 28.9751 16.7093 28.9751 15.5167C28.9751 14.4019 29.2567 13.3907 29.8198 12.4833C30.4086 11.5759 31.2021 10.85 32.2003 10.3056C33.1986 9.76111 34.3249 9.48889 35.5792 9.48889C36.4495 9.48889 37.2942 9.57963 38.1133 9.76111C38.958 9.94259 39.7771 10.2407 40.5706 10.6556V15.2833H39.9946L38.8044 13.4556C38.318 12.7037 37.8189 12.1463 37.3069 11.7833C36.795 11.4204 36.1807 11.2389 35.464 11.2389C34.6961 11.2389 34.0689 11.4333 33.5826 11.8222C33.1218 12.2111 32.8915 12.7556 32.8915 13.4556C32.8915 13.9222 32.9939 14.3241 33.1986 14.6611C33.429 14.9722 33.8258 15.2833 34.3889 15.5944C34.952 15.9056 35.7583 16.2685 36.8078 16.6833C37.5245 16.9685 38.2284 17.3056 38.9196 17.6944C39.6363 18.0574 40.225 18.5889 40.6858 19.2889C41.1721 19.963 41.4153 20.9093 41.4153 22.1278C41.4153 23.3463 41.0953 24.3963 40.4554 25.2778C39.8155 26.1593 38.9836 26.8333 37.9597 27.3C36.9614 27.7667 35.8863 28 34.7345 28Z" fill="#272727"/>
<path d="M49.886 28C48.3246 28 47.0447 27.663 46.0464 26.9889C45.0481 26.3148 44.549 25.3685 44.549 24.15V11.6278H41.7845V11.0833L45.3169 9.87778L49.1949 5.6H49.9244V9.87778H55.2614V11.6278H49.9244V23.1778C49.9244 23.8519 50.206 24.3444 50.7691 24.6556C51.3322 24.9667 51.9977 25.1222 52.7657 25.1222C53.252 25.1222 53.6743 25.0963 54.0327 25.0444C54.4167 24.9667 54.7878 24.8889 55.1462 24.8111L55.2614 24.8889V25.55C54.8262 26.1722 54.1223 26.7426 53.1496 27.2611C52.1769 27.7537 51.089 28 49.886 28Z" fill="#272727"/>
<path d="M60.0893 27.9611C58.835 27.9611 57.76 27.5852 56.8641 26.8333C55.9682 26.0556 55.5458 24.9407 55.597 23.4889C55.597 22.5556 55.7762 21.7648 56.1345 21.1167C56.4929 20.4426 57.12 19.8593 58.0159 19.3667C58.9118 18.8741 60.1661 18.4204 61.7787 18.0056L65.3879 17.1111V14.7C65.3879 13.7148 65.0935 12.9241 64.5048 12.3278C63.916 11.7315 63.1609 11.4333 62.2394 11.4333C61.4203 11.4333 60.8316 11.6148 60.4732 11.9778C60.1149 12.3407 59.9357 12.8852 59.9357 13.6111V15.4L59.7821 15.5556H57.248C56.8641 15.5556 56.5953 15.4648 56.4417 15.2833C56.2881 15.1019 56.2113 14.7907 56.2113 14.35C56.2113 13.7796 56.4289 13.2222 56.8641 12.6778C57.3248 12.1333 57.9263 11.6278 58.6687 11.1611C59.5901 10.5648 60.4477 10.137 61.2412 9.87778C62.0603 9.61852 62.9434 9.48889 63.8904 9.48889C65.1447 9.48889 66.2966 9.65741 67.346 9.99444C68.3955 10.3315 69.2274 10.8759 69.8418 11.6278C70.4817 12.3537 70.8016 13.3 70.8016 14.4667V24.7333C71.2112 25.1481 71.8255 25.3556 72.6446 25.3556H73.7581L73.8733 25.4722V26.0167C73.5917 26.5093 73.1054 26.963 72.4143 27.3778C71.7487 27.7926 70.8784 28 69.8034 28C68.7283 28 67.8452 27.7796 67.1541 27.3389C66.4885 26.8722 65.9766 26.2111 65.6182 25.3556H65.3879C64.7479 26.0815 63.98 26.7037 63.0841 27.2222C62.1882 27.7148 61.19 27.9611 60.0893 27.9611ZM60.6652 22.4C60.6652 23.2296 60.8828 23.8519 61.3179 24.2667C61.7787 24.6556 62.4058 24.85 63.1993 24.85C63.8904 24.85 64.62 24.6944 65.3879 24.3833V18.6667C64.108 18.9519 63.1225 19.263 62.4314 19.6C61.7659 19.937 61.3051 20.3259 61.0492 20.7667C60.7932 21.2074 60.6652 21.7519 60.6652 22.4ZM63.6985 6.61111C61.8555 6.61111 60.4988 6.07963 59.6285 5.01667C58.7582 3.9537 58.0799 2.32037 57.5936 0.116667H58.3999C58.8606 1.12778 59.347 1.87963 59.8589 2.37222C60.3965 2.86481 60.9724 3.18889 61.5867 3.34445C62.2266 3.5 62.9306 3.57778 63.6985 3.57778C64.4664 3.57778 65.1575 3.5 65.7718 3.34445C66.4118 3.18889 66.9877 2.86481 67.4996 2.37222C68.0372 1.87963 68.5363 1.12778 68.9971 0.116667H69.8034C69.317 2.32037 68.6003 3.9537 67.6532 5.01667C66.7061 6.07963 65.3879 6.61111 63.6985 6.61111Z" fill="#272727"/>
<path d="M73.9411 27.6111V26.8333L82.2345 11.7056H76.7056L74.6322 15.9444H73.9027L74.325 9.48889H74.517C74.8754 9.59259 75.3105 9.68333 75.8225 9.76111C76.36 9.83889 76.8463 9.87778 77.2815 9.87778H88.8385V10.6556L80.5451 25.7833H86.65L88.4162 21.2722H89.1457V27.6111H73.9411Z" fill="#272727"/>
<path d="M95.7479 5.63889C94.9288 5.63889 94.2505 5.37963 93.713 4.86111C93.201 4.31667 92.9451 3.64259 92.9451 2.83889C92.9451 2.00926 93.201 1.33519 93.713 0.816668C94.2505 0.272223 94.9288 0 95.7479 0C96.567 0 97.2326 0.272223 97.7445 0.816668C98.282 1.33519 98.5508 2.00926 98.5508 2.83889C98.5508 3.64259 98.282 4.31667 97.7445 4.86111C97.2326 5.37963 96.567 5.63889 95.7479 5.63889ZM90.5645 27.6111V26.9889L93.137 25.7444V13.9222L90.6797 12.0944V11.6278L98.0901 9.48889H98.5508V25.7444L100.816 26.9889V27.6111H90.5645Z" fill="#272727"/>
<path d="M105.159 27.8056C104.391 27.8056 103.725 27.5204 103.162 26.95C102.599 26.3796 102.317 25.7056 102.317 24.9278C102.317 24.1241 102.599 23.437 103.162 22.8667C103.725 22.2963 104.391 22.0111 105.159 22.0111C105.927 22.0111 106.592 22.2963 107.155 22.8667C107.718 23.437 108 24.1241 108 24.9278C108 25.7056 107.718 26.3796 107.155 26.95C106.592 27.5204 105.927 27.8056 105.159 27.8056Z" fill="#272727"/>
</svg>
